<svg width="25" height="26" viewBox="0 0 25 26" version="1.1" xmlns="http://www.w3.org/2000/svg" xmlns:xlink="http://www.w3.org/1999/xlink">
<title>Group</title>
<desc>Created using Figma</desc>
<g id="Canvas" transform="translate(-69 -32)">
<rect x="69" y="32" width="25" height="26" fill="#E5E5E5"/>
<clipPath id="clip-0" clip-rule="evenodd">
<path d="M -251 -207L 124 -207L 124 460L -251 460L -251 -207Z" fill="#FFFFFF"/>
</clipPath>
<g id="Frame" clip-path="url(#clip-0)">
<path d="M -251 -207L 124 -207L 124 460L -251 460L -251 -207Z" fill="#F2F2F2"/>
<g id="list-date">
<g id="list-post">
<g id="Rectangle">
<use xlink:href="#path0_fill" transform="translate(-251 10)" fill="#FFFFFF"/>
</g>
<g id="thumbs-up">
<g id="thumbs-up">
<g id="Group">
<g id="Vector">
<use xlink:href="#path1_fill" transform="translate(69 32)" fill="#BCBCBC"/>
</g>
</g>
</g>
</g>
</g>
</g>
</g>
</g>
<defs>
<path id="path0_fill" d="M 0 0L 375 0L 375 80L 0 80L 0 0Z"/>
<path id="path1_fill" d="M 24.9949 12.3205C 24.9949 10.2718 23.4343 8.59917 21.5116 8.59917L 16.1261 8.59917L 16.1261 4.45288C 16.1261 2.69847 15.6467 1.43442 14.6981 0.693428C 13.1987 -0.483442 11.1383 0.18672 11.0516 0.219411C 10.7915 0.306587 10.613 0.562665 10.613 0.856883L 10.613 5.51533C 10.613 9.18215 6.62995 10.4299 6.46165 10.4843C 6.41065 10.5007 6.36475 10.517 6.32395 10.5443C 6.02815 9.91225 5.41616 9.47637 4.71236 9.47637L 1.79519 9.47637C 0.805794 9.47637 0 10.3372 0 11.3942L 0 22.7216C 0 23.7786 0.805794 24.6395 1.79519 24.6395L 3.48327 24.6395C 3.83007 24.6395 4.11057 24.3398 4.11057 23.9693C 4.11057 23.5988 3.82497 23.3046 3.48327 23.3046L 1.79519 23.3046C 1.49429 23.3046 1.24949 23.0431 1.24949 22.7216L 1.24949 11.3942C 1.24949 11.0728 1.49429 10.8112 1.79519 10.8112L 4.71746 10.8112C 5.01836 10.8112 5.26316 11.0728 5.26316 11.3942L 5.26316 22.0787C 5.26316 24.1273 6.82374 25.8 8.74643 25.8L 19.4155 25.8C 21.7819 25.8 23.2864 24.476 23.5516 22.1877L 24.9898 12.5439C 24.9949 12.5112 25 12.473 25 12.4403L 25 12.3205L 24.9949 12.3205ZM 23.7454 12.3804L 22.3123 21.997C 22.1236 23.6315 21.1495 24.4651 19.4155 24.4651L 19.0177 24.4651L 8.74643 24.4651C 7.51734 24.4651 6.51265 23.3972 6.51265 22.0787L 6.51265 11.7756C 6.60445 11.7974 6.70135 11.792 6.79825 11.7647C 7.00734 11.7048 11.8625 10.201 11.8625 5.50988L 11.8625 1.39083C 12.3929 1.30366 13.3007 1.25462 13.9586 1.76678C 14.5655 2.24624 14.8766 3.14524 14.8766 4.45288L 14.8766 9.26933C 14.8766 9.63982 15.1571 9.93949 15.5039 9.93949L 21.5167 9.93949C 22.7458 9.93949 23.7505 11.0074 23.7505 12.3259L 23.7505 12.3804L 23.7454 12.3804Z"/>
</defs>
</svg>
